<svg xmlns="http://www.w3.org/2000/svg" viewBox="0 0 512 512">
  <defs>
    <linearGradient id="gradient" x1="0%" y1="0%" x2="100%" y2="100%">
      <stop offset="0%" style="stop-color:#5865f2;stop-opacity:1" />
      <stop offset="100%" style="stop-color:#9146ff;stop-opacity:1" />
    </linearGradient>
  </defs>
  
  <g transform="translate(0, 512) scale(0.1, -0.1)">
    <!-- Shield Base -->
    <path fill="url(#gradient)" d="M2560 4484 c-394 -48 -765 -230 -1041 -510 -224 -226 -375 -498 -448 -805 -25 -105 -27 -132 -27 -349 0 -217 2 -244 27 -349 75 -320 234 -607 472 -845 224 -224 498 -376 805 -448 105 -25 132 -27 349 -27 217 0 244 2 349 27 307 72 581 224 805 448 238 238 397 525 472 845 25 105 27 132 27 349 0 217 -2 244 -27 349 -73 307 -224 579 -448 805 -291 291 -682 470 -1100 510 -105 10 -195 10 -295 -1z"/>
    
    <!-- Checkmark -->
    <path fill="#2ecc71" d="M2100 2935 c-152 -37 -276 -164 -306 -312 -23 -113 11 -233 89 -318 132 -145 349 -167 504 -51 63 47 123 134 123 178 0 11 -9 33 -20 50 -25 38 -26 38 -65 38 -49 0 -85 -23 -85 -55 0 -30 -34 -73 -76 -95 -40 -21 -123 -14 -158 14 -62 50 -62 156 0 206 67 54 173 44 228 -22 23 -27 27 -41 27 -88 0 -47 -4 -61 -27 -88 -33 -39 -93 -64 -143 -60 -90 6 -149 77 -142 172 5 65 50 127 110 149 59 21 132 4 176 -41 18 -18 35 -39 39 -47 12 -25 46 -27 65 -4 8 10 21 33 28 52 24 60 10 133 -34 181 -66 72 -190 107 -290 82z"/>
    
    <!-- Keyhole -->
    <path fill="#ffffff" d="M2560 3045 c-260 -48 -459 -253 -498 -510 -18 -120 5 -242 69 -343 132 -209 378 -322 625 -292 189 23 349 118 446 264 119 179 138 406 50 603 -77 172 -242 296 -432 326 -77 12 -207 12 -280 -48z m280 -185 c128 -35 228 -135 263 -263 21 -77 16 -193 -11 -265 -52 -136 -169 -234 -311 -259 -195 -35 -387 85 -435 272 -21 82 -16 195 13 275 52 143 181 247 331 267 67 9 102 6 150 -17z"/>
    
    <!-- Text -->
    <text x="2560" y="800" font-family="Arial" font-size="400" fill="#ffffff" text-anchor="middle">
      <tspan x="2560" dy="0">STC</tspan>
    </text>
  </g>
</svg>